# Alias OBJ Model File
# Exported from SketchUp, (c) 2000-2012 Trimble Navigation Limited
# File units = centimeters

mtllib träd_q.mtl

g Mesh1 Model

usemtl FrontColor
v -0.918973 0 -370.27
vt 0.3618 145.776
vn 0 -1 -0
v 9.08103 0 -370.27
vt -3.57521 145.776
v 9.08103 0 -360.27
vt -3.57521 141.839
v -0.918973 0 -360.27
vt 0.3618 141.839
f 1/1/1 2/2/1 3/3/1 4/4/1 

v -0.918973 122.792 -370.27
vt 0.3618 48.3435
vn -6.03749e-17 -1.63792e-16 -1
v -0.918973 182.792 -370.27
vt 0.3618 71.9655
v 9.08103 182.792 -370.27
vt -3.57521 71.9655
v 9.08103 122.792 -370.27
vt -3.57521 48.3435
v 9.08103 112.792 -370.27
vt -3.57521 44.4065
v 9.08103 42.7925 -370.27
vt -3.57521 16.8474
v 79.081 42.7925 -370.27
vt -31.1343 16.8474
v 79.081 32.7925 -370.27
vt -31.1343 12.9104
v 9.08103 32.7925 -370.27
vt -3.57521 12.9104
vt -3.57521 2.38769e-14
vt 0.3618 2.38769e-14
v -0.918973 112.792 -370.27
vt 0.3618 44.4065
f 5/5/2 6/6/2 7/7/2 8/8/2 9/9/2 10/10/2 11/11/2 12/12/2 13/13/2 2/14/2 1/15/2 14/16/2 

v -0.918973 192.792 -360.27
vt -141.839 75.9025
vn -1 1.17983e-17 1.34301e-15
v -0.918973 242.792 -360.27
vt -141.839 95.5876
v -0.918973 242.792 -370.27
vt -145.776 95.5876
v -0.918973 192.792 -370.27
vt -145.776 75.9025
vt -145.776 71.9655
vt -145.776 48.3435
v -0.918973 122.792 -360.27
vt -141.839 48.3435
v -0.918973 182.792 -360.27
vt -141.839 71.9655
f 15/17/3 16/18/3 17/19/3 18/20/3 6/21/3 5/22/3 19/23/3 20/24/3 

v 9.08103 192.792 -360.27
vt 3.57521 75.9025
vn -8.07792e-32 -1.44382e-15 1
v 9.08103 242.792 -360.27
vt 3.57521 95.5876
vt -0.3618 95.5876
vt -0.3618 75.9025
f 21/25/4 22/26/4 16/27/4 15/28/4 

v 9.08103 192.792 -370.27
vt 145.776 75.9025
vn 1 -2.50413e-15 -4.17355e-15
v 9.08103 242.792 -370.27
vt 145.776 95.5876
vt 141.839 95.5876
vt 141.839 75.9025
f 23/29/5 24/30/5 22/31/5 21/32/5 

v -0.918973 252.792 -370.27
vt 0.3618 99.5246
vn -5.41434e-15 3.3784e-16 -1
v -0.918973 292.792 -370.27
vt 0.3618 115.273
v 9.08103 292.792 -370.27
vt -3.57521 115.273
v 9.08103 252.792 -370.27
vt -3.57521 99.5246
vt -3.57521 95.5876
vt -3.57521 75.9025
vt 0.3618 75.9025
vt 0.3618 95.5876
f 25/33/6 26/34/6 27/35/6 28/36/6 24/37/6 23/38/6 18/39/6 17/40/6 

v -0.918973 302.792 -360.27
vt -141.839 119.21
vn -1 -8.61058e-17 2.81997e-16
v -0.918973 332.792 -360.27
vt -141.839 131.021
v -0.918973 332.792 -370.27
vt -145.776 131.021
v -0.918973 302.792 -370.27
vt -145.776 119.21
vt -145.776 115.273
vt -145.776 99.5246
v -0.918973 252.792 -360.27
vt -141.839 99.5246
v -0.918973 292.792 -360.27
vt -141.839 115.273
f 29/41/7 30/42/7 31/43/7 32/44/7 26/45/7 25/46/7 33/47/7 34/48/7 

v 9.08103 302.792 -360.27
vt 3.57521 119.21
vn -3.60956e-15 -1.80478e-14 1
v 9.08103 332.792 -360.27
vt 3.57521 131.021
vt -0.3618 131.021
vt -0.3618 119.21
f 35/49/8 36/50/8 30/51/8 29/52/8 

v 9.08103 302.792 -370.27
vt 145.776 119.21
vn 1 -3.75996e-16 -2.25597e-15
v 9.08103 332.792 -370.27
vt 145.776 131.021
vt 141.839 131.021
vt 141.839 119.21
f 37/53/9 38/54/9 36/55/9 35/56/9 

v -0.918973 342.792 -370.27
vt 0.3618 134.958
vn 7.21911e-15 6.35282e-15 -1
v -0.918973 362.792 -370.27
vt 0.3618 142.832
v 9.08103 362.792 -370.27
vt -3.57521 142.832
v 9.08103 342.792 -370.27
vt -3.57521 134.958
vt -3.57521 131.021
vt -3.57521 119.21
vt 0.3618 119.21
vt 0.3618 131.021
f 39/57/10 40/58/10 41/59/10 42/60/10 38/61/10 37/62/10 32/63/10 31/64/10 

v -0.918973 372.792 -360.27
vt -141.839 146.769
vn -1 2.40483e-15 8.07215e-16
v -0.918973 382.792 -360.27
vt -141.839 150.706
v -0.918973 382.792 -370.27
vt -145.776 150.706
v -0.918973 372.792 -370.27
vt -145.776 146.769
vt -145.776 142.832
vt -145.776 134.958
v -0.918973 342.792 -360.27
vt -141.839 134.958
v -0.918973 362.792 -360.27
vt -141.839 142.832
f 43/65/11 44/66/11 45/67/11 46/68/11 40/69/11 39/70/11 47/71/11 48/72/11 

v 9.08103 372.792 -360.27
vt 3.57521 146.769
vn -3.60956e-15 1.80478e-14 1
v 9.08103 382.792 -360.27
vt 3.57521 150.706
vt -0.3618 150.706
vt -0.3618 146.769
f 49/73/12 50/74/12 44/75/12 43/76/12 

v 9.08103 372.792 -370.27
vt 145.776 146.769
vn 1 -9.36229e-15 -3.38396e-15
v 9.08103 382.792 -370.27
vt 145.776 150.706
vt 141.839 150.706
vt 141.839 146.769
f 51/77/13 52/78/13 50/79/13 49/80/13 

vt -3.57521 150.706
vn 1.68446e-14 -2.16573e-14 -1
vt -3.57521 146.769
vt 0.3618 146.769
vt 0.3618 150.706
v -0.918973 392.792 -370.27
vt 0.3618 154.643
v 9.08103 392.792 -370.27
vt -3.57521 154.643
f 52/81/14 51/82/14 46/83/14 45/84/14 53/85/14 54/86/14 

v -30.919 372.792 -330.27
vt -12.1728 130.028
vn 0 1 -0
v -20.919 372.792 -330.27
vt -8.23582 130.028
v -20.919 372.792 -360.27
vt -8.23582 141.839
vt -0.3618 141.839
vt 3.57521 141.839
vt 3.57521 145.776
vt -0.3618 145.776
v -30.919 372.792 -370.27
vt -12.1728 145.776
f 55/87/15 56/88/15 57/89/15 43/90/15 49/91/15 51/92/15 46/93/15 58/94/15 

v -30.919 332.792 -330.27
vt -12.1728 131.021
vn 0 0 1
v 9.08103 332.792 -330.27
v 9.08103 342.792 -330.27
vt 3.57521 134.958
v -20.919 342.792 -330.27
vt -8.23582 134.958
vt -8.23582 146.769
vt -12.1728 146.769
f 59/95/16 60/50/16 61/96/16 62/97/16 56/98/16 55/99/16 

vt -3.57521 130.028
vt 12.1728 130.028
v -30.919 332.792 -340.27
vt 12.1728 133.965
v -0.918973 332.792 -340.27
vt 0.3618 133.965
f 30/4/1 36/3/1 60/100/1 59/101/1 63/102/1 64/103/1 

v 39.081 332.792 -410.27
vt -15.3862 161.524
v 39.081 332.792 -400.27
vt -15.3862 157.587
v 9.08103 332.792 -400.27
vt -3.57521 157.587
v -0.918973 332.792 -410.27
vt 0.3618 161.524
f 65/104/1 66/105/1 67/106/1 38/2/1 36/3/1 30/4/1 31/1/1 68/107/1 

v 39.081 302.792 -400.27
vt -157.587 119.21
vn -1 0 -0
vt -157.587 131.021
vt -161.524 131.021
v 39.081 292.792 -410.27
vt -161.524 115.273
v 39.081 292.792 -370.27
v 39.081 302.792 -370.27
f 69/108/17 66/109/17 65/110/17 70/111/17 71/45/17 72/44/17 

v 49.081 342.792 -400.27
vt 19.3232 134.958
v 9.08103 342.792 -400.27
vt 15.3862 131.021
vt 15.3862 119.21
v 49.081 302.792 -400.27
vt 19.3232 119.21
f 73/112/16 74/96/16 67/50/16 66/113/16 69/114/16 75/115/16 

v 49.081 342.792 -410.27
vt 19.3232 161.524
v -0.918973 342.792 -410.27
vt -0.3618 161.524
v 9.08103 342.792 -360.27
vt 3.57521 157.587
vt 19.3232 157.587
f 76/116/15 77/117/15 39/93/15 47/90/15 78/91/15 42/92/15 74/118/15 73/119/15 

v 49.081 292.792 -410.27
vt -19.3232 115.273
vn 0 0 -1
vt -15.3862 115.273
vt -15.3862 131.021
vt -19.3232 134.958
f 79/120/18 70/121/18 65/122/18 68/64/18 77/57/18 76/123/18 

v 9.08103 292.792 -360.27
vt -15.3862 145.776
vt -19.3232 161.524
v 49.081 292.792 -360.27
vt -19.3232 141.839
f 80/3/1 27/2/1 71/124/1 70/104/1 79/125/1 81/126/1 

v -40.919 292.792 -320.27
vt 16.1098 126.091
v -50.919 292.792 -320.27
vt 20.0468 126.091
v -50.919 292.792 -370.27
vt 20.0468 145.776
v -40.919 292.792 -360.27
vt 16.1098 141.839
f 82/127/1 83/128/1 84/129/1 26/1/1 27/2/1 80/3/1 34/4/1 85/130/1 

v -50.919 242.792 -320.27
vt 20.0468 95.5876
vt 20.0468 115.273
vt 16.1098 115.273
v -40.919 252.792 -320.27
vt 16.1098 99.5246
v -0.918973 252.792 -320.27
v -0.918973 242.792 -320.27
f 86/131/18 83/132/18 82/133/18 87/134/18 88/33/18 89/40/18 

v -50.919 242.792 -310.27
vt -122.154 95.5876
v -50.919 302.792 -310.27
vt -122.154 119.21
v -50.919 302.792 -370.27
vt -126.091 115.273
vt -126.091 95.5876
f 90/135/17 91/136/17 92/44/17 84/45/17 83/137/17 86/138/17 

vt -20.0468 95.5876
v 9.08103 242.792 -310.27
v 9.08103 252.792 -310.27
vt 3.57521 99.5246
v -40.919 252.792 -310.27
vt -16.1098 99.5246
v -40.919 302.792 -310.27
vt -16.1098 119.21
vt -20.0468 119.21
f 90/139/16 93/26/16 94/140/16 95/141/16 96/142/16 91/143/16 

vt -3.57521 122.154
vt 20.0468 122.154
vt 0.3618 126.091
f 16/4/1 22/3/1 93/144/1 90/145/1 86/128/1 89/146/1 

v 59.081 242.792 -430.27
vt -23.2602 169.398
v 59.081 242.792 -420.27
vt -23.2602 165.461
v 9.08103 242.792 -420.27
vt -3.57521 165.461
v -0.918973 242.792 -430.27
vt 0.3618 169.398
f 97/147/1 98/148/1 99/149/1 24/2/1 22/3/1 16/4/1 17/1/1 100/150/1 

v 59.081 192.792 -420.27
vt -165.461 75.9025
vt -165.461 95.5876
vt -169.398 95.5876
v 59.081 182.792 -430.27
vt -169.398 71.9655
v 59.081 182.792 -370.27
v 59.081 192.792 -370.27
f 101/151/17 98/152/17 97/153/17 102/154/17 103/21/17 104/20/17 

v 69.081 252.792 -420.27
vt 27.1973 99.5246
v 9.08103 252.792 -420.27
vt 23.2602 95.5876
vt 23.2602 75.9025
v 69.081 192.792 -420.27
vt 27.1973 75.9025
f 105/155/16 106/140/16 99/26/16 98/156/16 101/157/16 107/158/16 

v 69.081 252.792 -430.27
vt 27.1973 169.398
v -0.918973 252.792 -430.27
vt -0.3618 169.398
v 9.08103 252.792 -360.27
vt 3.57521 165.461
vt 27.1973 165.461
f 108/159/15 109/160/15 25/93/15 33/90/15 110/91/15 28/92/15 106/161/15 105/162/15 

v 69.081 182.792 -430.27
vt -27.1973 71.9655
vt -23.2602 71.9655
vt -23.2602 95.5876
vt -27.1973 99.5246
f 111/163/18 102/164/18 97/165/18 100/40/18 109/33/18 108/166/18 

v 9.08103 182.792 -360.27
vt -23.2602 145.776
vt -27.1973 169.398
v 69.081 182.792 -360.27
vt -27.1973 141.839
f 112/3/1 7/2/1 103/167/1 102/147/1 111/168/1 113/169/1 

v -60.919 182.792 -300.27
vt 23.9838 118.217
v -70.919 182.792 -300.27
vt 27.9209 118.217
v -70.919 182.792 -370.27
vt 27.9209 145.776
v -60.919 182.792 -360.27
vt 23.9838 141.839
f 114/170/1 115/171/1 116/172/1 6/1/1 7/2/1 112/3/1 20/4/1 117/173/1 

v -70.919 112.792 -300.27
vt 27.9209 44.4065
vt 27.9209 71.9655
vt 23.9838 71.9655
v -60.919 122.792 -300.27
vt 23.9838 48.3435
v -0.918973 122.792 -300.27
v -0.918973 112.792 -300.27
f 118/174/18 115/175/18 114/176/18 119/177/18 120/5/18 121/16/18 

v -70.919 112.792 -290.27
vt -114.28 44.4065
v -70.919 192.792 -290.27
vt -114.28 75.9025
v -70.919 192.792 -370.27
vt -118.217 71.9655
vt -118.217 44.4065
f 122/178/17 123/179/17 124/20/17 116/21/17 115/180/17 118/181/17 

vt -27.9209 44.4065
v 9.08103 112.792 -290.27
vt 3.57521 44.4065
v 9.08103 122.792 -290.27
vt 3.57521 48.3435
v -60.919 122.792 -290.27
vt -23.9838 48.3435
v -60.919 192.792 -290.27
vt -23.9838 75.9025
vt -27.9209 75.9025
f 122/182/16 125/183/16 126/184/16 127/185/16 128/186/16 123/187/16 

v -0.918973 112.792 -360.27
v 9.08103 112.792 -360.27
vt -3.57521 114.28
vt 27.9209 114.28
vt 0.3618 118.217
f 129/4/1 130/3/1 125/188/1 122/189/1 118/171/1 121/190/1 

v 9.08103 42.7925 -360.27
vt 3.57521 16.8474
vn 4.00944e-16 -1.35411e-15 1
vt -0.3618 44.4065
vt -0.3618 -1.92066e-13
vt 3.57521 -1.92066e-13
v 9.08103 32.7925 -360.27
vt 3.57521 12.9104
v 89.081 32.7925 -360.27
vt 35.0713 12.9104
v 89.081 42.7925 -360.27
vt 35.0713 16.8474
f 131/191/19 130/183/19 129/192/19 4/193/19 3/194/19 132/195/19 133/196/19 134/197/19 

vt 145.776 16.8474
vn 1 -3.86738e-16 -9.02389e-16
vt 145.776 44.4065
vt 141.839 44.4065
vt 141.839 16.8474
f 10/198/20 9/199/20 130/200/20 131/201/20 

v 79.081 112.792 -450.27
vt -31.1343 177.272
v 79.081 112.792 -440.27
vt -31.1343 173.335
v 9.08103 112.792 -440.27
vt -3.57521 173.335
v -0.918973 112.792 -450.27
vt 0.3618 177.272
f 135/202/1 136/203/1 137/204/1 9/2/1 130/3/1 129/4/1 14/1/1 138/205/1 

v 79.081 42.7925 -440.27
vt -173.335 16.8474
vt -173.335 44.4065
vt -177.272 44.4065
v 79.081 32.7925 -450.27
vt -177.272 12.9104
vt -145.776 12.9104
vt -145.776 16.8474
f 139/206/17 136/207/17 135/208/17 140/209/17 12/210/17 11/211/17 

v 89.081 122.792 -440.27
vt 35.0713 48.3435
v 9.08103 122.792 -440.27
vt 31.1343 44.4065
vt 31.1343 16.8474
v 89.081 42.7925 -440.27
f 141/212/16 142/184/16 137/183/16 136/213/16 139/214/16 143/197/16 

v 89.081 122.792 -450.27
vt 35.0713 177.272
v -0.918973 122.792 -450.27
vt -0.3618 177.272
v 9.08103 122.792 -360.27
vt 3.57521 173.335
vt 35.0713 173.335
f 144/215/15 145/216/15 5/93/15 19/90/15 146/91/15 8/92/15 142/217/15 141/218/15 

v 89.081 32.7925 -450.27
vt -35.0713 12.9104
vt -31.1343 44.4065
vt -35.0713 48.3435
f 147/219/18 140/12/18 135/220/18 138/16/18 145/5/18 144/221/18 

vn -1.25085e-33 -1 4.51195e-16
vt -31.1343 145.776
vt -35.0713 177.272
vt -35.0713 141.839
f 132/3/21 13/2/21 12/222/21 140/202/21 147/223/21 133/224/21 

vt 145.776 0
vn 1 0 -0
vt 145.776 12.9104
vt 141.839 12.9104
vt 141.839 0
f 2/225/22 13/226/22 132/227/22 3/228/22 

vt 177.272 12.9104
vt 177.272 48.3435
vt 173.335 48.3435
vt 173.335 16.8474
f 133/227/22 147/229/22 144/230/22 141/231/22 143/232/22 134/201/22 

vt 35.0713 141.839
vt 31.1343 173.335
vt 31.1343 145.776
f 134/233/15 143/218/15 139/234/15 11/235/15 10/92/15 131/91/15 

vn -1 0 -8.4599e-17
vt -145.776 44.4065
vt -177.272 48.3435
f 138/208/23 14/236/23 5/22/23 145/237/23 

vt -141.839 44.4065
vn -1 0 6.29574e-17
vt -118.217 48.3435
f 129/238/24 121/181/24 120/239/24 19/23/24 5/22/24 14/236/24 

vt -0.3618 118.217
vt -23.9838 118.217
vt -23.9838 114.28
vt 3.57521 114.28
f 120/240/15 119/241/15 127/242/15 126/243/15 146/91/15 19/90/15 

vt 118.217 71.9655
vt 141.839 71.9655
v -60.919 192.792 -360.27
vt 114.28 75.9025
vt 114.28 48.3435
vt 118.217 48.3435
f 114/244/22 117/245/22 148/32/22 128/246/22 127/247/22 119/248/22 

vt -23.9838 71.9655
vt -0.3618 71.9655
f 117/249/16 20/250/16 15/28/16 148/186/16 

vt 3.57521 71.9655
vt 27.1973 71.9655
v 69.081 192.792 -360.27
f 15/28/16 20/250/16 112/251/16 113/252/16 149/158/16 21/25/16 

vn 1.10203e-31 1.20319e-15 1
vt -0.3618 48.3435
f 146/184/25 112/251/25 20/250/25 19/253/25 

vt 145.776 48.3435
vn 1 5.26394e-16 -9.02389e-16
vt 145.776 71.9655
vt 141.839 48.3435
f 8/254/26 7/255/26 112/245/26 146/256/26 

vn 1 0 -1.80478e-15
vt 114.28 44.4065
f 9/199/27 8/254/27 146/256/27 126/247/27 125/257/27 130/200/27 

vn 1 0 2.57826e-16
vt 173.335 44.4065
f 142/231/28 8/254/28 9/199/28 137/258/28 

vt 169.398 71.9655
vt 169.398 99.5246
vt 165.461 99.5246
vt 165.461 75.9025
f 111/259/22 108/260/22 105/261/22 107/262/22 149/32/22 113/245/22 

vt 27.1973 141.839
vt 23.2602 165.461
vt 23.2602 145.776
f 149/263/15 107/162/15 101/264/15 104/265/15 23/92/15 21/91/15 

vn -8.15061e-16 1.24545e-31 -1
vt -23.2602 75.9025
f 23/38/29 104/266/29 103/164/29 7/7/29 6/6/29 18/39/29 

vt 27.9209 75.9025
vn 1.0313e-15 -2.36382e-31 -1
f 124/267/30 18/39/30 6/6/30 116/175/30 

vt -27.9209 114.28
vt -23.9838 141.839
vt -27.9209 145.776
f 123/268/15 128/242/15 148/269/15 15/90/15 21/91/15 23/92/15 18/93/15 124/270/15 

vt -141.839 -3.25638e-17
vn -1 9.00049e-17 3.38396e-16
vt -145.776 -3.25638e-17
f 4/271/31 129/238/31 14/236/31 1/272/31 

vn -1 -1.40998e-17 -8.2249e-17
vt -169.398 99.5246
f 100/153/32 17/19/32 25/46/32 109/273/32 

vn -1 -9.39989e-18 7.04992e-17
vt -126.091 99.5246
f 16/18/33 89/138/33 88/274/33 33/47/33 25/46/33 17/19/33 

vt -0.3618 126.091
vt -16.1098 126.091
vt -16.1098 122.154
vt 3.57521 122.154
f 88/275/15 87/276/15 95/277/15 94/278/15 110/91/15 33/90/15 

vt 126.091 115.273
vt 141.839 115.273
v -40.919 302.792 -360.27
vt 122.154 119.21
vt 122.154 99.5246
vt 126.091 99.5246
f 82/279/22 85/280/22 150/56/22 96/281/22 95/282/22 87/283/22 

vt -16.1098 115.273
vn 1.80478e-15 0 1
vt -0.3618 115.273
f 85/284/34 34/285/34 29/52/34 150/142/34 

vn -7.21911e-15 -2.06834e-31 1
vt 3.57521 115.273
vt 19.3232 115.273
v 49.081 302.792 -360.27
f 29/52/35 34/285/35 80/286/35 81/287/35 151/115/35 35/49/35 

vn -3.60956e-15 -9.02389e-16 1
vt -0.3618 99.5246
f 110/140/36 80/286/36 34/285/36 33/288/36 

vt 145.776 99.5246
vn 1 7.19091e-16 -4.11715e-15
vt 145.776 115.273
vt 141.839 99.5246
f 28/289/37 27/290/37 80/280/37 110/291/37 

vn 1 -5.63993e-17 -8.2907e-15
vt 122.154 95.5876
f 24/30/38 28/289/38 110/291/38 94/282/38 93/292/38 22/31/38 

vn 1 -5.63993e-17 1.65814e-15
vt 165.461 95.5876
f 106/261/39 28/289/39 24/30/39 99/293/39 

vt 157.587 119.21
vt 161.524 115.273
vt 161.524 134.958
vt 157.587 134.958
f 75/294/22 151/56/22 81/280/22 79/295/22 76/296/22 73/297/22 

vt 19.3232 141.839
vt 15.3862 157.587
vt 15.3862 145.776
f 151/298/15 75/119/15 69/299/15 72/300/15 37/92/15 35/91/15 

vt -15.3862 119.21
f 37/62/18 72/301/18 71/121/18 27/35/18 26/34/18 32/63/18 

vt 20.0468 119.21
f 92/302/18 32/63/18 26/34/18 84/132/18 

vt -20.0468 122.154
vt -16.1098 141.839
vt -20.0468 145.776
f 91/303/15 96/277/15 150/304/15 29/90/15 35/91/15 37/92/15 32/93/15 92/305/15 

vn -1 -2.81997e-17 -3.52496e-17
vt -161.524 134.958
f 68/110/40 31/43/40 39/70/40 77/306/40 

vn -1 -1.87998e-17 4.02852e-17
vt -133.965 131.021
v -0.918973 342.792 -340.27
vt -133.965 134.958
f 30/42/41 64/307/41 152/308/41 47/71/41 39/70/41 31/43/41 

vt 12.1728 131.021
v -30.919 362.792 -340.27
vt 12.1728 142.832
v -20.919 362.792 -340.27
vt 8.23582 142.832
v -20.919 342.792 -340.27
vt 8.23582 134.958
f 63/309/18 153/310/18 154/311/18 155/312/18 152/57/18 64/64/18 

vt -130.028 131.021
vt -130.028 146.769
v -30.919 362.792 -370.27
vt -133.965 142.832
f 59/313/17 55/314/17 58/68/17 156/69/17 153/315/17 63/307/17 

vt 12.1728 146.769
vn -9.62549e-15 1.10311e-30 -1
f 58/316/42 46/83/42 40/58/42 156/310/42 

vn 7.21911e-15 -9.62549e-15 -1
v 19.081 372.792 -370.27
vt -7.51222 146.769
v 19.081 362.792 -370.27
vt -7.51222 142.832
f 51/82/43 157/317/43 158/318/43 41/59/43 40/58/43 46/83/43 

v 29.081 372.792 -360.27
vt 11.4492 141.839
vn 4.81274e-15 1 -9.62549e-15
v 29.081 372.792 -380.27
vt 11.4492 149.713
v 19.081 372.792 -380.27
vt 7.51222 149.713
vt 7.51222 145.776
f 159/319/44 160/320/44 161/321/44 157/322/44 51/92/44 49/91/44 

vt 149.713 146.769
vn 1 -3.15016e-15 9.9755e-15
v 29.081 362.792 -360.27
vt 141.839 142.832
v 29.081 362.792 -390.27
vt 153.65 142.832
v 29.081 392.792 -390.27
vt 153.65 154.643
v 29.081 392.792 -380.27
vt 149.713 154.643
f 160/323/45 159/80/45 162/324/45 163/325/45 164/326/45 165/327/45 

vt -0.3618 142.832
v 9.08103 362.792 -360.27
vt 3.57521 142.832
vt 11.4492 142.832
vt 11.4492 146.769
f 43/76/35 48/328/35 166/329/35 162/330/35 159/331/35 49/73/35 

v -20.919 362.792 -360.27
vt -8.23582 142.832
vn 3.60956e-15 0 1
f 167/332/46 48/328/46 43/76/46 57/98/46 

vt 8.23582 133.965
vt 12.1728 145.776
vt 8.23582 141.839
f 154/333/1 153/102/1 156/334/1 40/1/1 41/2/1 166/3/1 48/4/1 167/335/1 

vt 145.776 134.958
vn 1 -1.12799e-16 -2.81997e-15
vt 145.776 142.832
vt 141.839 134.958
f 42/336/47 41/337/47 166/324/47 78/338/47 

vt -7.51222 145.776
v 19.081 362.792 -390.27
vt -7.51222 153.65
vt -11.4492 153.65
vt -11.4492 141.839
f 166/3/1 41/2/1 158/339/1 168/340/1 163/341/1 162/342/1 

vt -149.713 146.769
vn -1 4.81274e-15 -1.68446e-14
v 19.081 382.792 -380.27
vt -149.713 150.706
v 19.081 382.792 -390.27
vt -153.65 150.706
vt -153.65 142.832
f 161/343/48 169/344/48 170/345/48 168/346/48 158/69/48 157/68/48 

vt 11.4492 154.643
vn 6.25386e-29 7.21911e-15 1
v 9.08103 392.792 -380.27
vt 3.57521 154.643
v 9.08103 382.792 -380.27
vt 7.51222 150.706
vt 7.51222 146.769
f 165/347/49 171/348/49 172/74/49 169/349/49 161/350/49 160/331/49 

vt 11.4492 153.65
vn 1.73259e-15 1 -6.35282e-15
v -0.918973 392.792 -390.27
vt -0.3618 153.65
vt 3.57521 149.713
f 164/351/50 173/352/50 53/93/50 54/92/50 171/353/50 165/320/50 

vt -11.4492 142.832
vn 1.9951e-14 -1.0238e-14 -1
vt -7.51222 150.706
v -0.918973 382.792 -390.27
vt -11.4492 154.643
f 163/354/51 168/318/51 170/355/51 174/84/51 173/85/51 164/356/51 

vt -7.51222 149.713
vt -3.57521 149.713
vt 0.3618 153.65
f 170/340/1 169/357/1 172/358/1 52/2/1 50/3/1 44/4/1 45/1/1 174/359/1 

vn 1 8.0087e-15 1.47766e-14
vt 145.776 154.643
vt 149.713 150.706
f 171/327/52 54/360/52 52/78/52 172/361/52 

v 9.08103 392.792 -360.27
vt 141.839 154.643
vn 1 1.94014e-14 -3.38396e-15
f 175/362/53 50/79/53 52/78/53 54/360/53 

vn -2.73444e-30 5.05338e-14 1
v -0.918973 392.792 -360.27
vt -0.3618 154.643
f 44/75/54 50/74/54 175/348/54 176/363/54 

f 54/92/15 53/93/15 176/90/15 175/91/15 

vn -1 -1.23374e-14 1.53688e-15
vt -141.839 154.643
vt -145.776 154.643
f 44/66/55 176/364/55 53/365/55 45/67/55 

vn -1 -5.40024e-15 -1.50657e-14
vt -153.65 154.643
f 174/345/56 45/67/56 53/365/56 173/366/56 

vn -3.60956e-15 1.80478e-15 1
vt -0.3618 134.958
f 78/96/57 166/329/57 48/328/57 47/367/57 

vt -0.3618 133.965
vt -8.23582 133.965
vt 3.57521 130.028
f 152/368/15 155/369/15 62/88/15 61/370/15 78/91/15 47/90/15 

vt 133.965 142.832
vt 130.028 146.769
vt 130.028 134.958
vt 133.965 134.958
f 154/371/22 167/324/22 57/80/22 56/372/22 62/373/22 155/374/22 

vn 1 5.63993e-16 -5.07594e-15
vt 130.028 131.021
f 38/54/58 42/336/58 78/338/58 61/373/58 60/375/58 36/55/58 

vn 1 5.63993e-16 1.69198e-15
vt 157.587 131.021
f 74/297/59 42/336/59 38/54/59 67/376/59 

